HIERARCHY
ROOT mixamorig:Hips
{
	OFFSET -0.000008 104.274872 1.554316
	CHANNELS 6 Xposition Yposition Zposition Xrotation Yrotation Zrotation
	JOINT mixamorig:Spine
	{
		OFFSET -0.000005 10.181595 0.131519
		CHANNELS 6 Xposition Yposition Zposition Xrotation Yrotation Zrotation
		JOINT mixamorig:Spine1
		{
			OFFSET -0.000000 9.893959 -1.470707
			CHANNELS 6 Xposition Yposition Zposition Xrotation Yrotation Zrotation
			JOINT mixamorig:Spine2
			{
				OFFSET -0.000000 9.220757 -1.370641
				CHANNELS 6 Xposition Yposition Zposition Xrotation Yrotation Zrotation
				JOINT mixamorig:Neck
				{
					OFFSET 0.000001 16.740417 -2.049036
					CHANNELS 6 Xposition Yposition Zposition Xrotation Yrotation Zrotation
					JOINT mixamorig:Head
					{
						OFFSET 0.000000 9.617874 1.685006
						CHANNELS 6 Xposition Yposition Zposition Xrotation Yrotation Zrotation
						JOINT mixamorig:HeadTop_End
						{
							OFFSET 0.000002 22.037354 7.501101
							CHANNELS 6 Xposition Yposition Zposition Xrotation Yrotation Zrotation
							End Site
							{
								OFFSET 0.000168 2310.654297 -282.823242
							}
						}
					}
				}
				JOINT mixamorig:RightShoulder
				{
					OFFSET -4.569970 11.014908 -2.160885
					CHANNELS 6 Xposition Yposition Zposition Xrotation Yrotation Zrotation
					JOINT mixamorig:RightArm
					{
						OFFSET -10.592851 -0.524811 -2.232101
						CHANNELS 6 Xposition Yposition Zposition Xrotation Yrotation Zrotation
						JOINT mixamorig:RightForeArm
						{
							OFFSET -27.841511 0.000031 -0.000004
							CHANNELS 6 Xposition Yposition Zposition Xrotation Yrotation Zrotation
							JOINT mixamorig:RightHand
							{
								OFFSET -28.328831 -0.000015 0.000015
								CHANNELS 6 Xposition Yposition Zposition Xrotation Yrotation Zrotation
								JOINT mixamorig:RightHandThumb1
								{
									OFFSET -2.464806 -1.573990 2.681852
									CHANNELS 6 Xposition Yposition Zposition Xrotation Yrotation Zrotation
									JOINT mixamorig:RightHandThumb2
									{
										OFFSET -3.215179 -1.872803 1.924282
										CHANNELS 6 Xposition Yposition Zposition Xrotation Yrotation Zrotation
										JOINT mixamorig:RightHandThumb3
										{
											OFFSET -2.654831 -1.527969 1.512609
											CHANNELS 6 Xposition Yposition Zposition Xrotation Yrotation Zrotation
											JOINT mixamorig:RightHandThumb4
											{
												OFFSET -2.018814 -1.152008 1.108052
												CHANNELS 6 Xposition Yposition Zposition Xrotation Yrotation Zrotation
												End Site
												{
													OFFSET -188.809540 -114.533607 132.431396
												}
											}
										}
									}
								}
								JOINT mixamorig:RightHandIndex1
								{
									OFFSET -9.108284 -0.517868 2.259835
									CHANNELS 6 Xposition Yposition Zposition Xrotation Yrotation Zrotation
									JOINT mixamorig:RightHandIndex2
									{
										OFFSET -3.699989 0.000000 0.001215
										CHANNELS 6 Xposition Yposition Zposition Xrotation Yrotation Zrotation
										JOINT mixamorig:RightHandIndex3
										{
											OFFSET -2.850006 0.000031 -0.000522
											CHANNELS 6 Xposition Yposition Zposition Xrotation Yrotation Zrotation
											JOINT mixamorig:RightHandIndex4
											{
												OFFSET -2.772186 -0.000015 -0.000020
												CHANNELS 6 Xposition Yposition Zposition Xrotation Yrotation Zrotation
												End Site
												{
													OFFSET -277.218445 0.000000 -0.050231
												}
											}
										}
									}
								}
								JOINT mixamorig:RightHandMiddle1
								{
									OFFSET -9.532516 -0.000031 -0.000023
									CHANNELS 6 Xposition Yposition Zposition Xrotation Yrotation Zrotation
									JOINT mixamorig:RightHandMiddle2
									{
										OFFSET -3.700005 -0.000015 0.003713
										CHANNELS 6 Xposition Yposition Zposition Xrotation Yrotation Zrotation
										JOINT mixamorig:RightHandMiddle3
										{
											OFFSET -2.949974 0.000015 -0.002054
											CHANNELS 6 Xposition Yposition Zposition Xrotation Yrotation Zrotation
											JOINT mixamorig:RightHandMiddle4
											{
												OFFSET -2.946640 0.000000 -0.000156
												CHANNELS 6 Xposition Yposition Zposition Xrotation Yrotation Zrotation
												End Site
												{
													OFFSET -294.664337 0.000000 -0.113670
												}
											}
										}
									}
								}
								JOINT mixamorig:RightHandRing1
								{
									OFFSET -9.103600 -0.043076 -1.865134
									CHANNELS 6 Xposition Yposition Zposition Xrotation Yrotation Zrotation
									JOINT mixamorig:RightHandRing2
									{
										OFFSET -3.379288 0.000000 -0.001055
										CHANNELS 6 Xposition Yposition Zposition Xrotation Yrotation Zrotation
										JOINT mixamorig:RightHandRing3
										{
											OFFSET -2.889687 -0.000015 0.000379
											CHANNELS 6 Xposition Yposition Zposition Xrotation Yrotation Zrotation
											JOINT mixamorig:RightHandRing4
											{
												OFFSET -2.638809 -0.000015 0.000941
												CHANNELS 6 Xposition Yposition Zposition Xrotation Yrotation Zrotation
												End Site
												{
													OFFSET -263.880371 0.000000 0.516020
												}
											}
										}
									}
								}
								JOINT mixamorig:RightHandPinky1
								{
									OFFSET -8.076683 -0.486710 -3.806280
									CHANNELS 6 Xposition Yposition Zposition Xrotation Yrotation Zrotation
									JOINT mixamorig:RightHandPinky2
									{
										OFFSET -3.600014 -0.000015 -0.003747
										CHANNELS 6 Xposition Yposition Zposition Xrotation Yrotation Zrotation
										JOINT mixamorig:RightHandPinky3
										{
											OFFSET -2.099983 0.000000 -0.005739
											CHANNELS 6 Xposition Yposition Zposition Xrotation Yrotation Zrotation
											JOINT mixamorig:RightHandPinky4
											{
												OFFSET -2.115768 -0.000031 -0.003680
												CHANNELS 6 Xposition Yposition Zposition Xrotation Yrotation Zrotation
												End Site
												{
													OFFSET -211.577087 0.000000 -0.350686
												}
											}
										}
									}
								}
							}
						}
					}
				}
				JOINT mixamorig:LeftShoulder
				{
					OFFSET 4.570447 11.014725 -2.160855
					CHANNELS 6 Xposition Yposition Zposition Xrotation Yrotation Zrotation
					JOINT mixamorig:LeftArm
					{
						OFFSET 10.592371 -0.524597 -2.232119
						CHANNELS 6 Xposition Yposition Zposition Xrotation Yrotation Zrotation
						JOINT mixamorig:LeftForeArm
						{
							OFFSET 27.841532 -0.000031 0.000026
							CHANNELS 6 Xposition Yposition Zposition Xrotation Yrotation Zrotation
							JOINT mixamorig:LeftHand
							{
								OFFSET 28.328846 -0.000061 0.000022
								CHANNELS 6 Xposition Yposition Zposition Xrotation Yrotation Zrotation
								JOINT mixamorig:LeftHandThumb1
								{
									OFFSET 2.466141 -1.576172 2.681732
									CHANNELS 6 Xposition Yposition Zposition Xrotation Yrotation Zrotation
									JOINT mixamorig:LeftHandThumb2
									{
										OFFSET 3.217812 -1.872070 1.916482
										CHANNELS 6 Xposition Yposition Zposition Xrotation Yrotation Zrotation
										JOINT mixamorig:LeftHandThumb3
										{
											OFFSET 2.656029 -1.528778 1.514513
											CHANNELS 6 Xposition Yposition Zposition Xrotation Yrotation Zrotation
											JOINT mixamorig:LeftHandThumb4
											{
												OFFSET 2.020889 -1.154053 1.115139
												CHANNELS 6 Xposition Yposition Zposition Xrotation Yrotation Zrotation
												End Site
												{
													OFFSET 190.885437 -115.081749 130.048782
												}
											}
										}
									}
								}
								JOINT mixamorig:LeftHandIndex1
								{
									OFFSET 9.109314 -0.518021 2.259871
									CHANNELS 6 Xposition Yposition Zposition Xrotation Yrotation Zrotation
									JOINT mixamorig:LeftHandIndex2
									{
										OFFSET 3.699989 0.000000 -0.000322
										CHANNELS 6 Xposition Yposition Zposition Xrotation Yrotation Zrotation
										JOINT mixamorig:LeftHandIndex3
										{
											OFFSET 2.850006 0.000000 0.000352
											CHANNELS 6 Xposition Yposition Zposition Xrotation Yrotation Zrotation
											JOINT mixamorig:LeftHandIndex4
											{
												OFFSET 2.774864 -0.000031 -0.000027
												CHANNELS 6 Xposition Yposition Zposition Xrotation Yrotation Zrotation
												End Site
												{
													OFFSET 277.486267 0.000000 -0.009857
												}
											}
										}
									}
								}
								JOINT mixamorig:LeftHandMiddle1
								{
									OFFSET 9.533394 0.000061 0.000044
									CHANNELS 6 Xposition Yposition Zposition Xrotation Yrotation Zrotation
									JOINT mixamorig:LeftHandMiddle2
									{
										OFFSET 3.699989 -0.000015 -0.000231
										CHANNELS 6 Xposition Yposition Zposition Xrotation Yrotation Zrotation
										JOINT mixamorig:LeftHandMiddle3
										{
											OFFSET 2.949997 -0.000015 -0.000059
											CHANNELS 6 Xposition Yposition Zposition Xrotation Yrotation Zrotation
											JOINT mixamorig:LeftHandMiddle4
											{
												OFFSET 2.952896 0.000031 0.000063
												CHANNELS 6 Xposition Yposition Zposition Xrotation Yrotation Zrotation
												End Site
												{
													OFFSET 295.289337 0.000000 0.022810
												}
											}
										}
									}
								}
								JOINT mixamorig:LeftHandRing1
								{
									OFFSET 9.104523 -0.042999 -1.865074
									CHANNELS 6 Xposition Yposition Zposition Xrotation Yrotation Zrotation
									JOINT mixamorig:LeftHandRing2
									{
										OFFSET 3.150009 -0.000031 0.000043
										CHANNELS 6 Xposition Yposition Zposition Xrotation Yrotation Zrotation
										JOINT mixamorig:LeftHandRing3
										{
											OFFSET 2.949982 -0.000015 0.000040
											CHANNELS 6 Xposition Yposition Zposition Xrotation Yrotation Zrotation
											JOINT mixamorig:LeftHandRing4
											{
												OFFSET 2.644348 0.000000 0.000057
												CHANNELS 6 Xposition Yposition Zposition Xrotation Yrotation Zrotation
												End Site
												{
													OFFSET 264.434631 0.000000 0.012105
												}
											}
										}
									}
								}
								JOINT mixamorig:LeftHandPinky1
								{
									OFFSET 8.077789 -0.486847 -3.806259
									CHANNELS 6 Xposition Yposition Zposition Xrotation Yrotation Zrotation
									JOINT mixamorig:LeftHandPinky2
									{
										OFFSET 3.599953 0.000031 0.014727
										CHANNELS 6 Xposition Yposition Zposition Xrotation Yrotation Zrotation
										JOINT mixamorig:LeftHandPinky3
										{
											OFFSET 2.100021 0.000015 0.007705
											CHANNELS 6 Xposition Yposition Zposition Xrotation Yrotation Zrotation
											JOINT mixamorig:LeftHandPinky4
											{
												OFFSET 2.125504 0.000031 0.007517
												CHANNELS 6 Xposition Yposition Zposition Xrotation Yrotation Zrotation
												End Site
												{
													OFFSET 212.550781 0.000000 0.625752
												}
											}
										}
									}
								}
							}
						}
					}
				}
			}
		}
	}
	JOINT mixamorig:RightUpLeg
	{
		OFFSET -8.207787 -6.751648 -1.599560
		CHANNELS 6 Xposition Yposition Zposition Xrotation Yrotation Zrotation
		JOINT mixamorig:RightLeg
		{
			OFFSET -0.000002 -44.370117 0.345942
			CHANNELS 6 Xposition Yposition Zposition Xrotation Yrotation Zrotation
			JOINT mixamorig:RightFoot
			{
				OFFSET 0.000003 -44.423679 -3.043532
				CHANNELS 6 Xposition Yposition Zposition Xrotation Yrotation Zrotation
				JOINT mixamorig:RightToeBase
				{
					OFFSET -0.000002 -8.728671 10.710558
					CHANNELS 6 Xposition Yposition Zposition Xrotation Yrotation Zrotation
					JOINT mixamorig:RightToe_End
					{
						OFFSET -0.000001 -0.000679 9.278119
						CHANNELS 6 Xposition Yposition Zposition Xrotation Yrotation Zrotation
						End Site
						{
							OFFSET 0.000000 -0.067690 927.812134
						}
					}
				}
			}
		}
	}
	JOINT mixamorig:LeftUpLeg
	{
		OFFSET 8.207793 -6.751686 -1.599556
		CHANNELS 6 Xposition Yposition Zposition Xrotation Yrotation Zrotation
		JOINT mixamorig:LeftLeg
		{
			OFFSET -0.000004 -44.370014 0.346954
			CHANNELS 6 Xposition Yposition Zposition Xrotation Yrotation Zrotation
			JOINT mixamorig:LeftFoot
			{
				OFFSET -0.000001 -44.423672 -3.044401
				CHANNELS 6 Xposition Yposition Zposition Xrotation Yrotation Zrotation
				JOINT mixamorig:LeftToeBase
				{
					OFFSET -0.000002 -8.728669 10.710558
					CHANNELS 6 Xposition Yposition Zposition Xrotation Yrotation Zrotation
					JOINT mixamorig:LeftToe_End
					{
						OFFSET -0.000003 -0.000679 9.278133
						CHANNELS 6 Xposition Yposition Zposition Xrotation Yrotation Zrotation
						End Site
						{
							OFFSET 0.000000 -0.068021 927.813477
						}
					}
				}
			}
		}
	}
}
MOTION
Frames: 3
Frame Time: 0.033333
0.000006 104.270477 1.554256 0.000010 0.000003 -0.000113 -0.000005 10.181587 0.131522 0.000001 -0.000003 0.000084 -0.000000 9.893967 -1.470711 0.000001 0.000000 -0.000000 -0.000000 9.220802 -1.370642 0.000000 -0.000000 -0.000000 0.000001 16.740433 -2.049030 0.000000 -0.000000 -0.000000 0.000000 9.617859 1.685014 0.000000 0.000000 0.000000 0.000002 22.037384 7.501101 0.000000 -0.000000 0.000000 -4.569968 11.014880 -2.160881 0.000008 0.000001 -0.000038 -10.592856 -0.524798 -2.231837 76.985664 40.392800 -32.611752 -27.841515 0.000010 0.000581 -47.104837 115.426959 69.202438 -28.328810 0.000020 0.000022 -0.000324 -0.000043 0.000006 -2.464482 -1.573647 2.682253 123.642871 2.479963 136.745428 -3.215276 -1.872599 1.924657 150.592858 29.783955 -6.134630 -2.654973 -1.527864 1.513062 140.590292 28.222483 -36.277594 -2.018834 -1.152014 1.108058 -0.000003 -0.000003 0.000002 -9.108371 -0.517563 2.260074 89.588825 16.160506 -16.092761 -3.700069 0.000314 0.001453 85.223125 14.523607 -13.349506 -2.850084 0.000352 -0.000314 83.637948 12.662332 -11.337321 -2.772166 -0.000013 -0.000021 -0.000001 -0.000000 -0.000002 -9.532578 0.000260 0.000197 84.537463 15.570712 -14.297194 -3.700073 0.000309 0.003927 83.953646 13.551170 -12.115553 -2.950069 0.000331 -0.001852 85.983496 13.086952 -12.200437 -2.946623 -0.000000 -0.000156 -0.000004 -0.000000 -0.000001 -9.103688 -0.042775 -1.864894 83.992011 18.531329 -16.669886 -3.379338 0.000299 -0.000852 84.753222 11.736838 -10.730959 -2.889774 0.000337 0.000630 91.611073 8.891913 -9.192512 -2.638809 -0.000015 0.000942 -0.000001 -0.000002 0.000000 -8.076752 -0.486422 -3.806076 74.396121 20.669880 -15.639791 -3.600050 0.000249 -0.003570 76.822437 10.879229 -8.343382 -2.100010 0.000309 -0.005537 81.746573 6.524623 -5.455422 -2.115776 -0.000038 -0.003683 0.000002 0.000003 -0.000003 4.570446 11.014691 -2.160851 -0.000018 0.000010 -0.000021 10.592497 -0.524569 -2.232360 40.458820 -70.557582 29.225352 27.841730 -0.000072 -0.000096 63.372729 -106.394888 79.049666 28.328833 -0.000027 0.000018 0.000022 -0.000089 -0.000000 2.466098 -1.576182 2.681878 20.580637 118.776170 -73.400088 3.217820 -1.872019 1.916518 253.898076 49.865760 53.144029 2.656059 -1.528752 1.514647 -77.053393 20.188371 26.006649 2.020891 -1.154073 1.115145 0.000004 0.000004 0.000003 9.109244 -0.517826 2.260118 -102.062055 -20.826073 -25.592353 3.700113 0.000152 -0.000359 134.493378 -26.999748 419.616660 2.850060 0.000234 0.000206 -85.288087 -167.771972 193.267005 2.774880 -0.000011 -0.000028 0.000000 0.000000 -0.000000 9.533321 0.000284 0.000302 -110.433449 -19.575242 -27.889751 3.700076 0.000261 -0.000334 126.045322 -13.209120 385.623847 2.950014 0.000181 -0.000220 265.214360 -181.461966 178.657518 2.952880 -0.000031 0.000064 0.000000 0.000002 0.000000 9.104446 -0.042778 -1.864836 -117.787568 -17.696890 -28.935280 3.149978 0.000359 -0.000083 124.769702 1.730247 -3.304042 2.949955 0.000258 -0.000159 83.717075 11.226160 -10.063314 2.644323 0.000050 0.000052 0.000003 0.000001 -0.000002 8.077704 -0.486572 -3.806024 -125.820595 -10.164718 339.588345 3.599848 0.000421 0.014629 316.879960 170.157976 -203.820973 2.099941 0.000293 0.007515 94.059601 13.656652 -14.329255 2.125493 -0.000032 0.007528 -0.000000 0.000001 0.000007 -8.207786 -6.751667 -1.599560 -0.077001 -0.000003 0.000080 -0.000002 -44.370110 0.345938 0.153719 -0.000000 -0.000000 0.000000 -44.423679 -3.043532 -0.076700 0.000000 -0.000002 -0.000006 -8.728667 10.710559 -0.000009 -0.000000 -0.000000 -0.000001 -0.000679 9.278123 0.000000 -0.000000 -0.000000 8.207792 -6.751710 -1.599556 -0.074518 -0.000003 0.000081 -0.000002 -44.370014 0.346960 0.148822 0.000002 0.000000 -0.000001 -44.423664 -3.044403 -0.074314 0.000000 -0.000002 -0.000004 -8.728671 10.710558 0.000007 -0.000000 -0.000000 0.000000 -0.000680 9.278137 -0.000000 0.000000 -0.000001 
0.000006 104.270477 1.554256 0.000010 0.000003 -0.000113 -0.000005 10.181587 0.131522 0.000001 -0.000003 0.000084 -0.000000 9.893967 -1.470711 0.000001 0.000000 -0.000000 -0.000000 9.220802 -1.370642 0.000000 -0.000000 -0.000000 0.000001 16.740433 -2.049030 0.000000 -0.000000 -0.000000 0.000000 9.617859 1.685014 0.000000 0.000000 0.000000 0.000002 22.037384 7.501101 0.000000 -0.000000 0.000000 -4.569968 11.014880 -2.160881 0.000008 0.000001 -0.000038 -10.592854 -0.524798 -2.231831 76.777569 41.435524 -33.362260 -27.841515 -0.000010 0.000563 -46.318747 114.446172 67.195579 -28.328819 0.000020 0.000032 -0.000320 -0.000043 0.000003 -2.464484 -1.573644 2.682256 123.879510 1.279397 138.819784 -3.215278 -1.872590 1.924665 151.273937 29.803920 -6.241321 -2.654959 -1.527855 1.513080 140.817218 28.137027 -37.244065 -2.018822 -1.152017 1.108065 0.000000 -0.000003 0.000000 -9.108362 -0.517549 2.260078 89.451183 16.458809 -16.350353 -3.700079 0.000301 0.001470 85.792558 14.493996 -13.454475 -2.850093 0.000350 -0.000332 84.428358 12.485418 -11.333783 -2.772171 -0.000015 -0.000022 0.000000 0.000001 -0.000000 -9.532582 0.000262 0.000186 84.642436 15.848277 -14.577184 -3.700082 0.000307 0.003936 84.440850 13.183125 -11.884383 -2.950073 0.000331 -0.001845 86.570687 12.765061 -12.021836 -2.946629 -0.000000 -0.000153 0.000004 -0.000001 0.000002 -9.103688 -0.042755 -1.864899 84.196241 18.798914 -16.971726 -3.379339 0.000293 -0.000864 84.864131 11.312909 -10.363457 -2.889753 0.000343 0.000615 91.762444 8.477787 -8.789564 -2.638798 -0.000028 0.000940 0.000001 -0.000001 0.000002 -8.076742 -0.486390 -3.806071 74.610814 21.121076 -16.048086 -3.600044 0.000250 -0.003569 77.171644 10.801562 -8.333744 -2.100011 0.000306 -0.005516 82.168672 6.315819 -5.314509 -2.115762 -0.000042 -0.003684 -0.000006 -0.000000 0.000001 4.570446 11.014691 -2.160851 -0.000018 0.000010 -0.000021 10.592494 -0.524577 -2.232357 36.913180 -71.562303 27.050442 27.841732 -0.000072 -0.000078 63.571084 -107.209573 80.104691 28.328840 -0.000014 0.000018 0.000019 -0.000089 -0.000000 2.466166 -1.576140 2.681871 31.989748 130.800008 -93.126324 3.217804 -1.871993 1.916537 260.277144 45.106026 46.466474 2.656072 -1.528754 1.514622 -66.458130 16.312046 20.718336 2.020887 -1.154047 1.115140 0.000001 0.000006 0.000004 9.109253 -0.517772 2.260108 -109.843737 -13.956462 -19.764353 3.699913 0.000233 -0.000088 248.904879 -15.944607 336.911594 2.849934 0.000242 0.000605 69.749386 -164.335171 157.670819 2.774887 -0.000046 -0.000031 0.000000 0.000006 -0.000000 9.533300 0.000247 0.000294 -102.868359 -27.265972 -33.834869 3.700101 0.000232 -0.000327 117.423752 -15.927965 385.922982 2.949974 0.000220 -0.000220 275.351645 -182.986287 176.723604 2.952867 -0.000016 0.000065 0.000000 0.000002 -0.000001 9.104404 -0.042792 -1.864832 -110.460203 -28.113426 -39.664862 3.149958 0.000348 -0.000112 114.874698 7.625689 -11.913617 2.949913 0.000266 -0.000179 89.956672 17.211237 -17.197464 2.644306 0.000029 0.000059 -0.000000 -0.000001 0.000002 8.077694 -0.486610 -3.805999 -114.540176 -18.446246 331.221008 3.599846 0.000409 0.014595 310.011140 165.326068 -210.328640 2.099905 0.000323 0.007505 99.761258 18.293535 -21.333032 2.125523 -0.000020 0.007520 0.000001 -0.000000 0.000001 -8.207786 -6.751667 -1.599560 -0.077001 -0.000003 0.000080 -0.000002 -44.370110 0.345938 0.153719 -0.000000 -0.000000 0.000000 -44.423679 -3.043532 -0.076700 0.000000 -0.000002 -0.000006 -8.728667 10.710559 -0.000009 -0.000000 -0.000000 -0.000001 -0.000679 9.278123 0.000000 -0.000000 -0.000000 8.207792 -6.751710 -1.599556 -0.074518 -0.000003 0.000081 -0.000002 -44.370014 0.346960 0.148822 0.000002 0.000000 -0.000001 -44.423664 -3.044403 -0.074314 0.000000 -0.000002 -0.000004 -8.728671 10.710558 0.000007 -0.000000 -0.000000 0.000000 -0.000680 9.278137 -0.000000 0.000000 -0.000001 
0.000006 104.270477 1.554256 0.000010 0.000003 -0.000113 -0.000005 10.181587 0.131522 0.000001 -0.000003 0.000084 -0.000000 9.893967 -1.470711 0.000001 0.000000 -0.000000 -0.000000 9.220802 -1.370642 0.000000 -0.000000 -0.000000 0.000001 16.740433 -2.049030 0.000000 -0.000000 -0.000000 0.000000 9.617859 1.685014 0.000000 0.000000 0.000000 0.000002 22.037384 7.501101 0.000000 -0.000000 0.000000 -4.569968 11.014880 -2.160881 0.000008 0.000001 -0.000038 -10.592857 -0.524808 -2.231839 76.828884 41.003285 -33.031970 -27.841499 0.000016 0.000574 -46.175432 113.646459 66.209060 -28.328808 0.000018 0.000029 -0.000320 -0.000045 0.000005 -2.464500 -1.573635 2.682266 123.753657 2.714708 136.953352 -3.215296 -1.872616 1.924663 150.898796 29.819042 -5.988475 -2.654958 -1.527881 1.513065 140.696269 28.170226 -37.025663 -2.018826 -1.152002 1.108052 -0.000003 -0.000003 0.000002 -9.108370 -0.517550 2.260090 89.917651 16.698598 -16.721749 -3.700057 0.000303 0.001464 85.601504 14.822076 -13.714398 -2.850078 0.000349 -0.000323 84.252794 12.756071 -11.544487 -2.772160 -0.000016 -0.000018 0.000002 0.000000 0.000002 -9.532596 0.000266 0.000200 84.490881 16.283603 -14.936206 -3.700090 0.000295 0.003941 84.281406 13.725341 -12.342751 -2.950078 0.000328 -0.001855 86.517610 13.031577 -12.261901 -2.946621 0.000014 -0.000155 -0.000003 -0.000001 -0.000002 -9.103706 -0.042763 -1.864896 83.647530 19.279857 -17.243931 -3.379345 0.000296 -0.000837 85.008835 11.871466 -10.902468 -2.889771 0.000342 0.000641 92.167918 8.748843 -9.133336 -2.638790 -0.000003 0.000941 0.000001 0.000000 -0.000002 -8.076750 -0.486410 -3.806062 74.101883 21.377898 -16.099012 -3.600050 0.000258 -0.003569 77.385750 11.270264 -8.740552 -2.100038 0.000312 -0.005517 82.651019 6.745599 -5.736803 -2.115770 -0.000058 -0.003676 -0.000002 -0.000003 -0.000002 4.570446 11.014691 -2.160851 -0.000018 0.000010 -0.000021 10.592494 -0.524580 -2.232353 34.398680 -71.989367 25.344443 27.841724 -0.000059 -0.000092 64.976068 -107.675350 82.127847 28.328829 -0.000014 0.000025 0.000020 -0.000090 0.000001 2.466173 -1.576111 2.681888 45.321563 136.259200 -108.881760 3.217825 -1.871987 1.916552 267.668201 36.248224 38.295556 2.656060 -1.528740 1.514642 -64.105164 7.741949 18.491455 2.020887 -1.154074 1.115149 0.000003 0.000003 0.000004 9.109254 -0.517788 2.260113 -109.036593 -15.349894 -21.401887 3.699951 0.000195 -0.000067 254.684749 -14.978374 340.434878 2.849968 0.000228 0.000607 77.008382 -166.911901 163.590694 2.774883 -0.000015 -0.000036 0.000001 0.000001 0.000002 9.533282 0.000210 0.000289 -95.537087 -35.782333 -39.152031 3.700078 0.000224 -0.000353 105.027764 -13.801334 377.931360 2.949996 0.000224 -0.000223 274.695018 -185.311570 174.237484 2.952863 -0.000035 0.000067 -0.000000 0.000001 0.000001 9.104403 -0.042866 -1.864836 -102.917045 -39.311997 -48.301032 3.149959 0.000342 -0.000120 111.050051 8.949705 -13.002719 2.949873 0.000284 -0.000179 95.814638 20.845275 -23.018176 2.644326 0.000028 0.000058 -0.000001 0.000001 -0.000000 8.077695 -0.486673 -3.805992 -103.906705 -23.396948 330.063236 3.599796 0.000401 0.014577 309.324460 162.809799 -214.926997 2.099861 0.000319 0.007510 109.520267 21.700713 -30.059796 2.125506 -0.000013 0.007515 -0.000003 0.000004 0.000005 -8.207786 -6.751667 -1.599560 -0.077001 -0.000003 0.000080 -0.000002 -44.370110 0.345938 0.153719 -0.000000 -0.000000 0.000000 -44.423679 -3.043532 -0.076700 0.000000 -0.000002 -0.000006 -8.728667 10.710559 -0.000009 -0.000000 -0.000000 -0.000001 -0.000679 9.278123 0.000000 -0.000000 -0.000000 8.207792 -6.751710 -1.599556 -0.074518 -0.000003 0.000081 -0.000002 -44.370014 0.346960 0.148822 0.000002 0.000000 -0.000001 -44.423664 -3.044403 -0.074314 0.000000 -0.000002 -0.000004 -8.728671 10.710558 0.000007 -0.000000 -0.000000 0.000000 -0.000680 9.278137 -0.000000 0.000000 -0.000001 
